<?xml version="1.0" encoding="UTF-8"?>
<svg width="52px" height="52px" viewBox="0 0 52 52" version="1.1" xmlns="http://www.w3.org/2000/svg" xmlns:xlink="http://www.w3.org/1999/xlink">
    <!-- Generator: Sketch 53 (72520) - https://sketchapp.com -->
    <title>машина</title>
    <desc>Created with Sketch.</desc>
    <g id="Public" stroke="none" stroke-width="1" fill="none" fill-rule="evenodd">
        <g id="Artboard" transform="translate(-260.000000, -52.000000)" stroke="#5b5b5b" stroke-width="2">
            <g id="машина" transform="translate(260.000000, 52.000000)">
                <circle id="Oval-3" stroke-opacity="0.2" fill="#FFFFFF" cx="26" cy="26" r="25"></circle>
                <g id="car" transform="translate(14.000000, 16.000000)" stroke-linecap="round" stroke-linejoin="round">
                    <path d="M24,18.9473684 C24,19.5263158 23.5304348,20 22.9565217,20 L20.7130435,20 C20.1913043,20 19.773913,19.6315789 19.6695652,19.1052632 L19.3043478,16.8421053 L4.69565217,16.8421053 L4.33043478,19.1052632 C4.22608696,19.6315789 3.80869565,20 3.28695652,20 L1.04347826,20 C0.469565217,20 0,19.5263158 0,18.9473684 L0,13.3157895 C0,12.1578947 0.365217391,11.0526316 1.04347826,10.1578947 L3.13043478,7.36842105 L4.48695652,3.21052632 C4.95652174,1.78947368 6.15652174,0.684210526 7.6173913,0.421052632 C8.8173913,0.210526316 10.3304348,0 12,0 C13.6695652,0 15.1826087,0.210526316 16.3304348,0.421052632 C17.7913043,0.684210526 18.9913043,1.78947368 19.4608696,3.21052632 L20.8695652,7.36842105 L22.9565217,10.1578947 C23.6347826,11.0526316 24,12.1578947 24,13.3157895 L24,18.9473684 Z" id="Shape"></path>
                    <path d="M19.9826087,4.73684211 L21.9130435,4.73684211 C22.6434783,4.73684211 23.2173913,5.31578947 23.2173913,6.05263158 L23.2173913,6.05263158 C23.2173913,6.78947368 22.6434783,7.36842105 21.9130435,7.36842105 L20.8695652,7.36842105" id="Shape"></path>
                    <path d="M4.0173913,4.73684211 L2.08695652,4.73684211 C1.35652174,4.73684211 0.782608696,5.31578947 0.782608696,6.05263158 L0.782608696,6.05263158 C0.782608696,6.78947368 1.35652174,7.36842105 2.08695652,7.36842105 L3.13043478,7.36842105" id="Shape"></path>
                    <path d="M5.16521739,14.2105263 L3.1826087,14.2105263 C2.60869565,14.2105263 2.08695652,13.6842105 2.08695652,13.1052632 L2.08695652,12.8421053 C2.08695652,12.1578947 2.66086957,11.6315789 3.33913043,11.7368421 L5.32173913,12 C5.89565217,12.0526316 6.31304348,12.5263158 6.31304348,13.1052632 L6.31304348,13.1052632 C6.26086957,13.6842105 5.73913043,14.2105263 5.16521739,14.2105263 Z" id="Shape"></path>
                    <path d="M18.8347826,14.2105263 L20.8173913,14.2105263 C21.4434783,14.2105263 21.9130435,13.6842105 21.9130435,13.1052632 L21.9130435,12.8421053 C21.9130435,12.1578947 21.3391304,11.6315789 20.6608696,11.7368421 L18.6782609,12 C18.1043478,12.0526316 17.6869565,12.5263158 17.6869565,13.1052632 L17.6869565,13.1052632 C17.7391304,13.6842105 18.2608696,14.2105263 18.8347826,14.2105263 Z" id="Shape"></path>
                    <path d="M7.82608696,12.6315789 L15.9130435,12.6315789" id="Shape"></path>
                </g>
            </g>
        </g>
    </g>
</svg>